<svg width="160" height="83" viewBox="0 0 160 83" fill="none" xmlns="http://www.w3.org/2000/svg">
<path fill-rule="evenodd" clip-rule="evenodd" d="M56.0165 32.2082C56.315 35.9342 57.2506 37.7617 59.3945 39.5237C60.4769 40.3614 61.7333 40.945 63.0711 41.2316C67.3733 42.1965 69.3666 39.7201 69.6111 41.8009L69.4946 55.1794C69.4661 57.2147 69.1676 58.3419 71.3769 58.47C77.698 58.84 76.8904 58.1255 76.9615 53.2523L77.4449 21.0129C77.5416 14.483 78.3662 14.5228 73.2081 14.5655C69.5855 14.594 70.0547 14.873 69.9438 22.1543C69.8898 25.5303 70.0974 29.6378 69.7647 32.9169C69.6765 33.7851 69.5713 34.4427 68.8292 34.7216C68.0251 34.9504 67.1807 35 66.3554 34.8668C64.7943 34.6191 64.0266 33.8079 63.7195 32.2622C63.2275 29.7659 63.5887 24.5568 63.6313 21.7302C63.7394 14.4375 64.4559 14.5172 60.0969 14.5115C59.2074 14.481 58.317 14.5267 57.4354 14.6481C56.4828 14.836 56.389 15.243 56.298 16.1937L56.0165 32.2082ZM39.1319 36.0851C39.2712 35.1856 39.4646 33.8392 40.4428 33.8791C41.3299 34.4113 41.3498 36.068 41.546 37.1639C41.7422 38.2598 42.0863 39.8852 41.9839 41.0665C41.3612 41.5788 39.0978 41.9005 38.5718 41.0437C38.5092 40.5484 38.9243 37.0557 39.1404 36.0851H39.1319ZM1.81982 14.6082C0.645469 14.8189 0.611347 15.3768 0.5886 16.672L0.0454956 53.0275C0.0284348 54.1034 0 55.188 0 56.2611C0 57.5164 0.179139 58.0686 1.42174 58.1284C2.49373 58.1825 3.55435 58.2195 4.65761 58.2195C5.76088 58.2195 6.50872 57.9718 6.74473 57.0211C6.98073 56.0704 6.88121 51.812 6.90112 50.5112C6.90112 49.6999 7.2139 48.0774 6.69639 47.5451C5.28887 46.0849 4.65761 40.9469 4.84244 39.6347C5.17228 37.2351 5.9514 33.7652 6.45185 31.2176C6.67933 30.0619 6.21584 29.319 6.82719 28.2202C7.08879 27.7505 7.24518 27.6879 7.2594 26.9991C7.29352 24.961 7.50962 16.1824 7.33333 15.5305C7.07457 14.5855 6.122 14.5826 5.01021 14.557C4.0548 14.5371 2.71268 14.4517 1.81982 14.6082ZM34.0193 23.6032C34.4174 23.4324 37.8922 19.7576 38.4296 19.2025L40.5764 16.9253C41.2247 16.1852 42.6322 15.0466 42.7716 14.7335C41.4949 14.6139 39.8144 14.7079 38.4893 14.6936C35.9159 14.6652 35.043 17.7479 34.6904 19.7974C34.4715 21.0442 34.1473 22.3393 34.0193 23.6032ZM115.681 49.4836V49.1989L115.445 49.2445C114.473 49.5832 113.58 50.2948 112.297 50.6677C111.356 50.9381 110.591 50.5852 109.315 52.2418C109.548 52.6973 111.092 53.7419 111.606 54.0864C112.744 54.8521 112.326 53.4914 114.902 54.1006C115.101 53.7277 115.704 49.9789 115.681 49.4836ZM113.841 18.2774C117.575 19.0118 119.366 20.7311 118.786 17.2185C118.584 15.9888 118.903 15.9148 119.309 15.0608C118.417 15.0011 115.931 14.9413 115.203 15.243C114.097 15.7013 113.81 17.3637 113.841 18.2774ZM129.481 48.7349C129.484 48.5348 129.469 48.3348 129.438 48.1372C129.418 48.0639 129.394 47.9916 129.367 47.9208C129.367 47.9038 129.333 47.8924 129.33 47.8525C129.327 47.8127 129.299 47.8098 129.287 47.7871C129.31 46.7481 126.159 27.6822 126.137 27.6623C125.912 27.3776 125.983 27.5029 125.5 27.4146C125.215 27.3663 125.087 27.3008 124.837 27.2524C124.394 28.0836 124.132 28.9603 123.6 29.7602L120.777 34.3373C120.052 35.6126 119.924 35.3678 120.143 37.0216C120.748 41.3283 121.263 45.4529 121.849 49.7483C123.114 59.2442 121.977 58.84 127.379 58.7774C130.826 58.7319 130.899 58.2963 130.419 54.9147C130.143 53.0303 129.6 50.5652 129.483 48.7435L129.481 48.7349ZM32.1085 33.7766L31.918 34.585L29.1968 49.5035C30.3287 50.3367 31.3987 51.2509 32.3986 52.239C32.6429 52.5455 32.9836 52.7602 33.3653 52.8481C35.4724 53.352 34.7871 54.3226 36.1321 54.4365C36.3254 54.0266 36.5927 51.1203 36.8515 50.2094C37.295 48.6439 38.3585 48.5955 40.1357 48.5784C41.9128 48.5613 42.6806 48.9399 43.1697 50.4428C44.0398 53.1015 43.3147 57.5591 45.0691 58.2337C45.871 58.5354 48.7656 58.4643 49.704 58.3846C51.8337 58.2052 51.9787 57.8751 51.8224 55.6064L45.8823 17.4946L40.2921 23.1876C39.8229 23.8081 39.0011 24.5112 38.4438 25.0805C37.2211 26.3387 35.9472 27.7021 34.6961 28.9176C34.1274 29.4869 33.2488 30.1274 32.7739 30.7337C32.5123 31.0724 32.1313 33.1788 32.1085 33.7766ZM90.9173 32.8486C90.8581 32.7932 90.7922 32.7454 90.7211 32.7063C90.6445 32.6649 90.5634 32.6324 90.4794 32.6095C89.1231 32.0402 89.4529 25.4933 89.7145 23.8281C89.9022 22.6724 90.2548 22.3536 91.1078 21.9522C90.9864 21.5854 90.9324 21.1997 90.9486 20.8136C91.0453 20.1902 91.1704 20.4635 90.7439 19.8373C90.3173 19.211 87.852 15.0181 87.616 14.9128C86.6748 14.853 84.1555 14.8075 83.3508 15.0238C82.1253 15.354 82.3186 16.9395 82.2959 18.303L81.8921 44.4737C81.8722 45.8344 81.5793 56.6368 81.8296 57.4652C82.1708 58.6038 83.7802 58.5696 84.9943 58.5753L89.3989 58.5952C91.8642 58.5952 91.304 58.9169 92.7002 57.616C92.9504 57.3855 92.9675 57.2517 93.1892 57.0154C93.7406 56.4789 94.2483 55.8992 94.7077 55.2819C95.1797 54.6073 95.9787 53.258 96.5218 52.8225C96.6839 52.6318 96.664 53.0787 96.6668 52.5549L96.0981 52.3813C95.4896 52.2276 94.6906 51.9743 94.0451 51.7352C92.9504 51.3281 93.32 51.311 91.8613 51.2569C89.9136 51.1858 89.4245 50.4941 89.2823 48.604C89.2014 46.8426 89.2518 45.0776 89.433 43.3237C89.6178 41.3653 89.7913 40.5911 91.9239 40.4915C96.1891 40.2922 97.9208 41.3255 98.1483 38.6982C98.2222 37.8129 98.2705 37.0102 98.2648 36.1193C98.2648 33.6371 98.3359 33.2727 95.9161 33.0963C94.1646 32.9653 92.6632 33.0593 90.9173 32.8486ZM101.768 42.4129C101.461 42.4499 101.683 42.4129 101.452 42.4783C101.43 42.4783 101.39 42.5438 101.376 42.521C101.361 42.4983 101.33 42.5552 101.307 42.5723L101.768 42.4129ZM3.03399 63.9267H28.702C29.0016 64.1451 29.3442 64.297 29.7071 64.3721C30.07 64.4472 30.4447 64.4438 30.8062 64.3622C31.3749 64.2541 31.9436 64.0776 32.5123 63.9267H84.3489C83.6892 64.4163 83.021 64.8945 82.3585 65.35C81.6476 65.8396 80.9367 66.3349 80.223 66.8017C79.5939 67.2345 78.9278 67.6107 78.2326 67.926C78.0722 67.9804 77.9062 68.0167 77.7378 68.0342C77.374 68.0733 77.0167 68.1584 76.6743 68.2876C76.358 68.414 76.0685 68.5994 75.8213 68.8341L75.2668 69.3578L75.3123 70.1349C75.3427 70.7341 75.5846 71.303 75.9948 71.7404H3.03399C2.3175 71.7247 1.63633 71.4258 1.13925 70.909C0.642172 70.3922 0.369586 69.6994 0.381026 68.9821V66.6821C0.370344 65.9653 0.643268 65.2733 1.14026 64.7571C1.63726 64.2409 2.318 63.9424 3.03399 63.9267ZM3.12782 0H156.96C157.69 0.00150133 158.391 0.292495 158.908 0.809362C159.424 1.32623 159.716 2.02692 159.718 2.75826V5.05823C159.716 5.78957 159.424 6.49026 158.908 7.00713C158.391 7.524 157.69 7.81499 156.96 7.81649H3.12782C2.39776 7.81424 1.69824 7.52291 1.182 7.00613C0.66576 6.48934 0.374745 5.78908 0.372495 5.05823V2.75826C0.374745 2.02742 0.66576 1.32715 1.182 0.810363C1.69824 0.293577 2.39776 0.00225223 3.12782 0ZM27.1779 33.0678C26.4927 33.0678 26.0775 32.8088 25.2501 32.9966C24.6814 33.1219 24.2406 33.3866 23.6407 33.5261C22.563 33.7737 20.7517 33.8648 19.6427 33.5887C19.7996 33.2244 20.0116 32.8865 20.2711 32.5867C20.7659 31.9434 20.7403 32.1911 21.2379 31.7812C21.6161 31.4766 22.4777 30.3352 22.6113 29.5808C22.7563 28.7582 22.5601 28.9375 23.0521 28.3568L25.5316 25.5103C28.1504 22.3507 30.9939 19.3107 33.7634 16.2251L40.5281 8.79853H39.621C37.3007 11.4116 31.4488 17.839 30.8062 18.5677L27.5817 22.234C27.1893 22.6553 26.8794 23.1136 26.5154 23.5349C25.7846 24.3888 25.0112 25.1204 24.3117 25.9601C21.3204 29.5324 22.2843 27.9299 20.7574 28.391C20.4418 28.4878 20.038 28.7098 19.7195 28.6159C19.5375 28.7895 19.7963 28.6956 19.3385 28.8521C19.2247 28.8948 18.9802 28.9375 18.8267 28.9717L18.1016 29.151C17.9082 28.7155 17.3281 28.1234 17.2969 27.7676C17.9452 27.6936 18.0276 28.2088 18.6646 28.5931H19.4323L22.1279 26.9251C22.8957 26.2647 23.1146 25.1232 24.0814 24.4372C24.9344 23.8366 25.4434 22.513 25.3069 21.2007C25.1534 19.7775 24.3458 19.2281 23.78 18.2404C22.8729 16.652 22.3583 16.8427 21.2664 16.3759C20.7261 16.1454 20.8683 15.522 20.1887 15.2999C19.4579 15.0523 19.2759 14.7306 18.6845 14.557C16.822 14.0219 15.2865 16.2251 14.4193 16.8541C14.0809 17.0961 13.2819 17.4889 13.0914 17.7081C12.8326 17.8162 12.9748 17.5145 12.8411 17.9927C13.589 17.8589 13.1255 17.9016 13.3046 18.0525C13.2514 18.1752 13.1734 18.2856 13.0755 18.3767C12.9777 18.4678 12.8621 18.5377 12.7359 18.582C12.298 18.7698 12.8013 18.4909 12.5795 18.6588C12.5114 18.705 12.4493 18.7595 12.3947 18.8211C11.4194 19.2936 11.5246 19.7234 10.9332 20.455C11.0839 20.9246 11.0298 20.4066 11.1919 20.8819C11.2414 21.0917 11.2634 21.307 11.2573 21.5224L11.3568 21.9522L11.5843 21.7444C11.9113 21.6505 12.1075 21.3146 12.4573 21.232C12.4317 22.086 12.0592 21.5765 11.9398 22.4304C12.5207 22.1762 13.1194 21.965 13.7311 21.7985C14.0695 21.679 13.8619 21.7103 13.9273 21.8754C13.6657 22.16 13.7112 22.2625 13.1966 22.4703C12.7672 22.6268 12.5113 22.8119 12.2269 22.9314L11.9426 23.2872C12.1104 23.2872 12.1246 23.2872 12.2269 23.2303C12.3048 23.1946 12.3723 23.1398 12.4231 23.0709C12.5966 23.0367 13.5378 22.8204 13.8051 22.7435C14.2003 22.6268 14.4761 22.1372 14.678 21.7957C14.9624 21.8412 14.715 21.6989 14.9823 21.9551C14.9823 22.4447 15.2979 22.7464 15.1444 23.3783C14.9851 23.7794 14.7428 24.1422 14.4335 24.4429C12.7274 24.4628 12.6165 24.0729 11.2346 25.1887C10.4327 25.8291 10.0574 26.6831 9.38063 27.5712C8.56171 28.65 8.07832 28.6301 8.1949 30.3352C8.32854 32.2423 6.26987 38.2171 6.57127 41.2003C6.68863 42.3876 6.89392 43.5645 7.18546 44.7214C7.75416 47.0242 7.83946 45.86 9.11619 46.9673C9.08491 48.1059 7.81672 48.9399 10.845 49.8138C12.1274 50.1838 13.4041 50.6022 14.6979 50.9524C16.04 51.3167 17.3338 51.7152 18.6361 52.0027C22.2559 52.8111 21.2777 52.034 22.6739 51.5302C24.161 54.8464 25.1932 54.4194 28.1703 56.5543C28.5656 56.8389 28.4888 57.0496 30.0783 58.1341C30.0982 59.6797 29.5096 63.1582 31.6422 62.7653C32.5464 62.6002 33.3682 62.2871 34.2895 62.1562C34.9577 62.0623 35.1027 62.2416 35.6885 62.2814C36.2174 62.3184 36.8259 62.2814 37.3547 62.2814C38.8618 62.2814 42.4901 62.327 41.8275 60.3287C41.1508 58.285 40.6901 57.9861 39.3765 57.9405C38.3727 57.9064 38.7907 57.7413 38.1595 57.4566C37.421 57.1455 36.7046 56.7841 36.0155 56.375C34.9492 55.7459 34.8041 56.1358 33.9795 55.1851C32.9729 54.0294 32.8422 54.8805 31.8811 54.0636C31.2299 53.5199 30.7437 53.036 30.175 52.4696C28.9978 51.331 27.7011 50.7446 26.7628 49.3384C26.2169 48.5101 26.0207 48.1116 25.4178 47.4711C24.9913 47.0214 23.8226 46.2898 23.5838 45.9795C23.3847 45.5155 23.7999 45.4501 23.2795 44.9349C23.0265 44.6872 22.7108 44.5591 22.4521 44.3001L24.1582 39.7884C24.4425 39.0227 24.7269 38.3253 25.0112 37.5482C25.6283 35.9029 25.5629 36.828 26.541 35.9428C26.9391 35.5784 27.394 34.6277 27.559 33.9104C27.7523 33.0564 31.301 29.8883 32.1085 29.0969L38.2675 22.8346C40.3518 20.6884 42.3678 18.6104 44.3724 16.5296C45.3734 15.4907 46.525 14.5029 47.5003 13.4469C47.668 13.2647 51.0688 9.55001 51.9873 8.60782L50.9778 8.62205L50.5655 9.02625C49.195 10.4125 45.6236 14.3151 44.2189 15.5732C43.9772 15.7838 43.7156 16.0742 43.4824 16.3104C42.9564 16.8484 42.5071 17.3267 41.9839 17.8675C41.5091 18.3571 40.9233 18.841 40.5053 19.342C39.4248 20.6457 37.3377 22.7094 36.0667 23.9618C35.1027 24.904 34.0307 25.9743 33.0981 26.9991C31.9607 28.243 30.9086 29.114 30.0811 29.9907C29.2537 30.8675 27.758 32.2252 27.1694 33.0706L27.1779 33.0678ZM108.854 21.8526C109.423 22.0319 110.114 22.1145 110.338 22.55C109.514 23.1022 107.267 22.4646 106.392 22.2369C105.103 21.9182 103.792 21.6965 102.47 21.5736C100.568 21.363 99.9624 21.4256 99.3084 20.1219C99.0241 19.5526 98.0431 17.5601 98.0829 16.9424C99.189 16.7972 100.298 17.7963 101.145 18.3172C104.174 20.2102 105.439 20.7937 108.845 21.8554L108.854 21.8526ZM98.6374 23.2588C98.6516 23.2758 98.68 23.2815 98.6914 23.3157C98.7027 23.3498 98.734 23.3555 98.7482 23.3669L99.3852 23.5747C101.177 24.0273 101.72 25.8092 102.49 27.4232C103.454 29.4442 104.987 32.1114 106.119 34.2833C106.505 35.0205 106.827 35.7891 107.27 36.6288C107.554 37.1611 108.322 38.3879 108.436 38.9487C108.641 39.8994 107.606 41.0409 106.81 40.3719L101.319 31.8609C100.466 30.5344 96.0441 24.3006 95.828 23.2701C96.7692 22.4162 97.6563 23.1421 98.6288 23.2616L98.6374 23.2588ZM101.885 24.682C102.351 24.5625 106.15 25.4136 107.04 25.516C108.029 25.6299 112.01 25.9174 112.593 26.1764C112.465 26.8738 111.936 26.7884 111.931 27.5399C111.931 28.1861 112.403 28.539 112.585 29.0058C112.789 29.5324 111.862 31.5421 111.618 32.2395C111.166 33.5175 109.898 37.8727 108.897 38.1773C108.075 37.1411 106.372 33.1674 105.445 31.3798C104.958 30.4803 101.85 25.368 101.876 24.6934L101.885 24.682ZM18.9376 33.0194C18.4542 32.6835 18.5651 32.0174 18.8608 31.4567L19.6626 31.8125C19.62 32.2565 19.2901 32.8629 18.9376 33.0194ZM21.7099 43.7735C20.3678 43.5344 19.6171 41.9119 18.8665 41.001C18.2096 40.2182 17.8314 40.463 17.9793 39.276C18.0817 38.4591 17.8798 37.3005 18.1954 36.6345C18.7015 36.3498 21.4 36.1306 22.1535 35.9968C23.7629 35.7122 25.1904 34.8582 24.4283 37.1127C23.979 38.3908 22.3156 43.0533 21.7099 43.7849V43.7735ZM134.269 24.3063C139.103 24.5568 132.034 21.7046 131.852 21.2747C131.988 20.5631 132.398 20.2358 132.472 19.0289C132.634 16.4129 131.42 14.91 128.952 14.0788C127.769 13.6774 127.857 14.2069 126.677 14.3293C125.869 14.4118 125.042 14.6509 124.246 14.4431C123.302 14.1927 123.051 14.8502 122.378 15.2971C121.641 15.781 120.956 15.7269 120.407 16.2478C120.185 17.2953 120.828 18.0525 120.435 19.1826C119.321 22.3763 116.594 20.6343 113.386 19.9027C110.367 19.211 111.294 19.6921 108.447 18.2916C106.904 17.5365 105.283 16.9505 103.613 16.5439C103.613 16.3389 103.383 16.4044 103.158 16.3816C99.9965 15.4964 99.0098 14.4545 97.2156 13.8653C95.6517 13.3529 95.6261 13.2391 94.8925 11.9155C94.7304 11.6308 92.7912 8.34594 92.5665 7.94458H92.0177C92.5864 9.08318 94.9209 13.2789 94.884 13.6518C94.8015 14.4716 94.4375 14.3663 94.9664 15.3996C95.1882 15.8322 95.6261 16.5382 95.882 16.726C96.4877 17.1701 96.8488 16.8399 97.2753 17.58C97.517 18.0013 98.6118 20.1703 98.6516 20.5404L98.7226 20.8705L97.7786 20.7026C97.1224 20.6209 96.4792 20.4554 95.865 20.2102C94.7589 19.8486 94.5598 20.2102 93.7295 20.065C93.2092 19.4672 92.521 18.0895 92.0234 17.3096C91.1192 15.8863 87.4141 10.1307 86.1915 8.01859H85.5119L89.5837 14.8018C90.0728 15.5789 92.9532 19.9255 93.1295 20.6115C92.7684 21.215 92.4983 21.2007 92.9532 22.0063C93.8063 23.5406 94.4603 22.9656 95.3076 23.9505L97.8156 27.8502C99.2771 30.042 105.939 39.9279 106.082 40.9441C105.57 41.28 102.507 42.1937 101.762 42.41H101.322C99.189 42.8939 93.974 45.1597 92.8907 46.4748C92.285 47.2092 92.4727 48.0916 92.939 48.8033C93.4053 49.5149 93.9371 49.7255 94.8385 50.0415C99.9795 51.8519 99.9311 51.5729 98.1596 53.3463C96.9256 54.5873 95.8849 56.7023 94.8953 57.4765C94.2612 57.9747 93.0385 59.4691 92.4954 59.9985C91.6826 60.8304 90.8285 61.6209 89.9363 62.3668C88.307 63.6962 86.0891 65.3329 84.2749 66.5341C83.1376 67.2941 80.9879 68.7686 79.6657 69.2696C78.8695 69.577 78.1899 69.392 77.6752 69.8617C77.7207 70.5961 78.5766 70.9405 79.2846 71.0771C80.6609 71.3475 82.3926 70.431 84.1726 70.3114C84.4086 70.2943 84.6218 70.2773 84.8152 70.2573C84.6935 70.5702 84.5022 70.8512 84.2559 71.079C84.0095 71.3069 83.7146 71.4756 83.3935 71.5724H157.076C157.793 71.5567 158.474 71.2578 158.971 70.741C159.468 70.2242 159.741 69.5315 159.729 68.8142V66.5142C159.74 65.7971 159.467 65.1048 158.97 64.5881C158.473 64.0715 157.793 63.7724 157.076 63.7559H117.165C116.654 64.6839 115.769 65.3044 114.623 65.1621L113.912 65.0767L113.514 64.459C113.369 64.2401 113.252 64.0039 113.165 63.7559H92.4357L93.3257 63.2492C99.8657 59.5033 97.1758 59.0393 102.05 55.2449C102.581 54.8293 103.329 53.964 104.151 54.1945C105.288 54.5162 107.54 56.0448 108.345 56.6397C109.679 57.6274 112.326 60.2092 113.614 61.3136C114.566 62.1306 114.131 62.7682 114.66 63.5538C115.513 63.6563 115.911 62.7824 116 61.9968C116.125 60.824 115.238 59.3495 114.925 57.4111C114.339 53.8046 113.202 56.2497 111.68 55.8825C110.901 55.6918 107.401 52.9734 106.926 52.0597C107.04 51.7494 109.443 49.5604 109.94 49.2786C110.773 48.8089 111.234 49.4295 114.242 47.8013C116.83 46.4065 115.53 46.9132 116.233 45.4643C116.406 45.1057 116.614 44.8068 116.77 44.505C118.331 41.4507 116.617 38.7608 118.653 34.6932C120.211 31.562 122.872 28.354 123.657 25.1716C123.976 23.8764 123.72 23.6658 123.754 22.6098L123.651 22.1372C123.779 22.0604 123.651 22.0803 123.89 22.1202C124.675 22.5016 124.376 24.9667 125.565 25.5103C126.023 25.721 127.22 25.7608 127.84 25.8889C129.472 26.2305 129.068 26.834 129.048 27.1328C129.85 27.1955 129.6 26.7514 130.007 26.4383C130.734 26.7229 130.422 27.5427 131.679 27.9185C132.532 28.1661 133.385 28.1092 134.317 28.3654C134.34 28.3654 134.368 28.3825 134.386 28.4166C134.403 28.4508 134.437 28.4565 134.454 28.465C134.542 28.5106 134.639 28.5386 134.738 28.5476L136.035 29.2421C136.64 28.5248 136.291 26.4212 135.79 25.8263C134.818 24.6479 133.948 25.2029 132.56 25.0435C132.608 24.386 133.515 24.1383 134.266 24.1326L134.269 24.3063ZM101.202 48.1856C101.487 47.7757 102.209 47.659 102.883 47.7045C102.766 48.6752 101.742 48.9143 101.202 48.1856ZM136.965 31.8353C136.626 31.6787 136.396 31.4339 136.021 31.3941C135.759 39.1451 135.782 47.0498 135.665 54.8037C135.634 56.9955 135.253 58.5639 137.539 58.7575C138.961 58.8742 141.804 59.0108 142.998 58.544C143.792 58.2309 144.048 57.8381 144.338 56.9186C145.043 54.687 145.808 52.9335 146.493 50.2977C146.578 50.2037 146.547 50.2664 146.627 50.0842C146.706 49.902 146.644 50.4144 146.661 49.8679C147.466 47.1751 148.509 44.4595 149.442 41.7269C149.726 40.8729 150.372 37.8983 151.537 38.8149C152.39 39.481 152.106 42.3047 152.086 43.6084C152.031 47.2045 151.978 50.7987 151.927 54.3909C151.904 55.8483 151.486 58.339 152.882 58.7262C153.531 58.9026 157.349 58.9909 158.015 58.8201C159.721 58.3789 159.385 56.5771 159.414 54.7154C159.601 42.1908 160.099 29.4641 159.982 16.9851C159.948 14.5997 158.501 15.0865 156.391 15.0865C155.058 15.0865 152.291 14.7193 151.509 15.6045L146.197 32.0858C145.879 33.1674 145.344 35.735 144.437 35.7236C143.24 35.7065 143.473 32.4928 143.488 31.4254C143.533 27.7989 143.559 24.1725 143.604 20.5489C143.678 14.7762 144.457 14.8417 138.486 14.9897C136.109 15.0438 136.237 15.7554 136.211 18.0667C136.211 18.9805 136.188 19.8999 136.166 20.8136C136.137 22.012 136.572 21.7103 137.056 22.5215C137.795 23.7768 137.408 25.0834 137.692 25.9601C138.568 28.6614 137.388 30.2953 137.36 31.636L137.223 31.8751L136.965 31.8353Z" fill="#F3F2EA"/>
<path d="M5.57121 75.8496H6.78738V81.8511H5.61403V77.9587L3.92682 80.7451H3.78979L2.10257 77.9673V81.8511H0.920661V75.8496H2.13683L3.8583 78.6874L5.57121 75.8496Z" fill="#F3F2EA"/>
<path d="M11.3131 78.233V75.8496H12.4865V81.8511H11.3131V79.3648H9.08636V81.8511H7.90445V75.8496H9.08636V78.233H11.3131Z" fill="#F3F2EA"/>
<path d="M18.6447 81.0709C18.0395 81.6711 17.303 81.9712 16.4351 81.9712C15.5672 81.9712 14.8307 81.6711 14.2254 81.0709C13.6259 80.4593 13.3261 79.7191 13.3261 78.8503C13.3261 77.9758 13.6259 77.2385 14.2254 76.6383C14.8307 76.0325 15.5672 75.7295 16.4351 75.7295C17.303 75.7295 18.0395 76.0325 18.6447 76.6383C19.25 77.2385 19.5526 77.9758 19.5526 78.8503C19.5526 79.7249 19.25 80.4651 18.6447 81.0709ZM15.0562 80.265C15.4216 80.6308 15.8812 80.8137 16.4351 80.8137C16.9889 80.8137 17.4485 80.6308 17.814 80.265C18.1851 79.8935 18.3707 79.4219 18.3707 78.8503C18.3707 78.2788 18.1851 77.8072 17.814 77.4357C17.4428 77.0642 16.9832 76.8784 16.4351 76.8784C15.8869 76.8784 15.4273 77.0642 15.0562 77.4357C14.6851 77.8072 14.4995 78.2788 14.4995 78.8503C14.4995 79.4219 14.6851 79.8935 15.0562 80.265Z" fill="#F3F2EA"/>
<path d="M20.3833 75.8496H23.792V76.9813H21.5652V81.8511H20.3833V75.8496Z" fill="#F3F2EA"/>
<path d="M29.1246 81.0709C28.5194 81.6711 27.7828 81.9712 26.9149 81.9712C26.0471 81.9712 25.3105 81.6711 24.7053 81.0709C24.1058 80.4593 23.806 79.7191 23.806 78.8503C23.806 77.9758 24.1058 77.2385 24.7053 76.6383C25.3105 76.0325 26.0471 75.7295 26.9149 75.7295C27.7828 75.7295 28.5194 76.0325 29.1246 76.6383C29.7298 77.2385 30.0324 77.9758 30.0324 78.8503C30.0324 79.7249 29.7298 80.4651 29.1246 81.0709ZM25.536 80.265C25.9015 80.6308 26.3611 80.8137 26.9149 80.8137C27.4688 80.8137 27.9284 80.6308 28.2938 80.265C28.665 79.8935 28.8505 79.4219 28.8505 78.8503C28.8505 78.2788 28.665 77.8072 28.2938 77.4357C27.9227 77.0642 27.4631 76.8784 26.9149 76.8784C26.3668 76.8784 25.9072 77.0642 25.536 77.4357C25.1649 77.8072 24.9794 78.2788 24.9794 78.8503C24.9794 79.4219 25.1649 79.8935 25.536 80.265Z" fill="#F3F2EA"/>
<path d="M34.3917 81.2853V81.9797H33.2355V81.2853C32.3962 81.1995 31.731 80.9452 31.24 80.5222C30.7489 80.0935 30.5034 79.5362 30.5034 78.8503C30.5034 78.1645 30.7489 77.61 31.24 77.1871C31.7253 76.7584 32.3905 76.5012 33.2355 76.4154V75.721H34.3917V76.4154C35.2196 76.4897 35.8848 76.7441 36.3873 77.1785C36.884 77.6072 37.1324 78.1645 37.1324 78.8503C37.1324 79.5362 36.884 80.0935 36.3873 80.5222C35.8848 80.9566 35.2196 81.211 34.3917 81.2853ZM34.3917 77.4871V80.205C35.4309 80.085 35.9505 79.6334 35.9505 78.8503C35.9505 78.0616 35.4309 77.6072 34.3917 77.4871ZM31.6768 78.8503C31.6768 79.6334 32.1963 80.0821 33.2355 80.1964V77.4957C32.1963 77.61 31.6768 78.0616 31.6768 78.8503Z" fill="#F3F2EA"/>
<path d="M39.67 78.7475L40.8519 75.8496H42.0338L40.2353 80.1964C39.7557 81.3624 38.9677 81.914 37.8715 81.8511V80.7451C38.1855 80.7737 38.4396 80.7308 38.6337 80.6165C38.8336 80.5022 39.002 80.3107 39.139 80.0421L37.1777 75.8496H38.3597L39.67 78.7475Z" fill="#F3F2EA"/>
<path d="M46.0815 78.233V75.8496H47.2549V81.8511H46.0815V79.3648H43.8548V81.8511H42.6728V75.8496H43.8548V78.233H46.0815Z" fill="#F3F2EA"/>
<path d="M50.7495 78.7646L53.0534 81.8511H51.6917L49.5505 79.039V81.8511H48.3686V75.8496H49.5505V78.4988L51.606 75.8496H52.9678L50.7495 78.7646Z" fill="#F3F2EA"/>
<path d="M58.1171 75.8496V80.7194H58.7594V83H57.5775V81.8511H53.6378V75.8496H54.8197V80.7194H56.9352V75.8496H58.1171Z" fill="#F3F2EA"/>
<path d="M64.2016 81.8511H63.0197V78.1902L60.4503 81.8511H59.551V75.8496H60.7329V79.5191L63.3023 75.8496H64.2016V81.8511Z" fill="#F3F2EA"/>
<path d="M70.3582 81.0709C69.753 81.6711 69.0164 81.9712 68.1486 81.9712C67.2807 81.9712 66.5441 81.6711 65.9389 81.0709C65.3394 80.4593 65.0396 79.7191 65.0396 78.8503C65.0396 77.9758 65.3394 77.2385 65.9389 76.6383C66.5441 76.0325 67.2807 75.7295 68.1486 75.7295C69.0164 75.7295 69.753 76.0325 70.3582 76.6383C70.9634 77.2385 71.2661 77.9758 71.2661 78.8503C71.2661 79.7249 70.9634 80.4651 70.3582 81.0709ZM66.7697 80.265C67.1351 80.6308 67.5947 80.8137 68.1486 80.8137C68.7024 80.8137 69.162 80.6308 69.5275 80.265C69.8986 79.8935 70.0842 79.4219 70.0842 78.8503C70.0842 78.2788 69.8986 77.8072 69.5275 77.4357C69.1563 77.0642 68.6967 76.8784 68.1486 76.8784C67.6004 76.8784 67.1408 77.0642 66.7697 77.4357C66.3985 77.8072 66.213 78.2788 66.213 78.8503C66.213 79.4219 66.3985 79.8935 66.7697 80.265Z" fill="#F3F2EA"/>
<path d="M75.5055 78.233V75.8496H76.6788V81.8511H75.5055V79.3648H73.2787V81.8511H72.0968V75.8496H73.2787V78.233H75.5055Z" fill="#F3F2EA"/>
<path d="M82.9313 81.8511H81.6466L81.2869 80.7709H78.8974L78.5376 81.8511H77.2615L79.3598 75.8496H80.8244L82.9313 81.8511ZM80.0964 77.2128L79.2742 79.6648H80.9186L80.0964 77.2128Z" fill="#F3F2EA"/>
<path d="M83.1178 81.8511V80.7537C83.4832 80.8051 83.7516 80.7308 83.9229 80.5308C84.0942 80.325 84.1798 79.9478 84.1798 79.3991V75.8496H88.2565V81.8511H87.0832V76.9813H85.3531V79.3648C85.3531 80.3993 85.1162 81.0995 84.6423 81.4653C84.2369 81.7854 83.7287 81.914 83.1178 81.8511Z" fill="#F3F2EA"/>
<path d="M90.5499 77.8215H91.6034C92.1744 77.8215 92.6597 78.0158 93.0594 78.4045C93.4533 78.7932 93.6503 79.2705 93.6503 79.8363C93.6503 80.4022 93.4533 80.8794 93.0594 81.2681C92.6597 81.6568 92.1744 81.8511 91.6034 81.8511H89.368V75.8496H90.5499V77.8215ZM90.5499 80.7451H91.6034C91.8546 80.7451 92.063 80.6594 92.2286 80.4879C92.3942 80.3164 92.477 80.0993 92.477 79.8363C92.477 79.5791 92.3942 79.3648 92.2286 79.1933C92.063 79.0161 91.8546 78.9275 91.6034 78.9275H90.5499V80.7451Z" fill="#F3F2EA"/>
<path d="M97.8285 78.233V75.8496H99.0018V81.8511H97.8285V79.3648H95.6017V81.8511H94.4198V75.8496H95.6017V78.233H97.8285Z" fill="#F3F2EA"/>
<path d="M102.351 81.8511H100.116V75.8496H101.297V77.8215H102.351C102.922 77.8215 103.407 78.0158 103.807 78.4045C104.201 78.7932 104.398 79.2705 104.398 79.8363C104.398 80.4022 104.201 80.8794 103.807 81.2681C103.407 81.6568 102.922 81.8511 102.351 81.8511ZM106.119 81.8511H104.946V75.8496H106.119V81.8511ZM101.297 78.9275V80.7451H102.351C102.602 80.7451 102.811 80.6594 102.976 80.4879C103.142 80.3164 103.224 80.0993 103.224 79.8363C103.224 79.5734 103.142 79.3562 102.976 79.1847C102.811 79.0133 102.602 78.9275 102.351 78.9275H101.297Z" fill="#F3F2EA"/>
<path d="M110.796 75.3008H108.312V74.3406H110.796V75.3008ZM111.884 81.8511H110.702V78.1902L108.132 81.8511H107.233V75.8496H108.415V79.5191L110.984 75.8496H111.884V81.8511Z" fill="#F3F2EA"/>
<path d="M117.518 78.7646L119.822 81.8511H118.46L116.319 79.039V81.8511H115.137V75.8496H116.319V78.4988L118.374 75.8496H119.736L117.518 78.7646Z" fill="#F3F2EA"/>
<path d="M124.941 81.0709C124.335 81.6711 123.599 81.9712 122.731 81.9712C121.863 81.9712 121.126 81.6711 120.521 81.0709C119.922 80.4593 119.622 79.7191 119.622 78.8503C119.622 77.9758 119.922 77.2385 120.521 76.6383C121.126 76.0325 121.863 75.7295 122.731 75.7295C123.599 75.7295 124.335 76.0325 124.941 76.6383C125.546 77.2385 125.848 77.9758 125.848 78.8503C125.848 79.7249 125.546 80.4651 124.941 81.0709ZM121.352 80.265C121.717 80.6308 122.177 80.8137 122.731 80.8137C123.285 80.8137 123.744 80.6308 124.11 80.265C124.481 79.8935 124.666 79.4219 124.666 78.8503C124.666 78.2788 124.481 77.8072 124.11 77.4357C123.739 77.0642 123.279 76.8784 122.731 76.8784C122.183 76.8784 121.723 77.0642 121.352 77.4357C120.981 77.8072 120.795 78.2788 120.795 78.8503C120.795 79.4219 120.981 79.8935 121.352 80.265Z" fill="#F3F2EA"/>
<path d="M131.33 75.8496H132.546V81.8511H131.372V77.9587L129.685 80.7451H129.548L127.861 77.9673V81.8511H126.679V75.8496H127.895L129.617 78.6874L131.33 75.8496Z" fill="#F3F2EA"/>
<path d="M133.663 75.8496H138.142V81.8511H136.96V76.9813H134.845V81.8511H133.663V75.8496Z" fill="#F3F2EA"/>
<path d="M138.796 81.8511V80.7537C139.161 80.8051 139.43 80.7308 139.601 80.5308C139.772 80.325 139.858 79.9478 139.858 79.3991V75.8496H143.934V81.8511H142.761V76.9813H141.031V79.3648C141.031 80.3993 140.794 81.0995 140.32 81.4653C139.915 81.7854 139.407 81.914 138.796 81.8511Z" fill="#F3F2EA"/>
<path d="M146.228 79.3733V80.7194H148.754V81.8511H145.046V75.8496H148.712V76.9813H146.228V78.2588H148.498V79.3733H146.228Z" fill="#F3F2EA"/>
<path d="M151.968 78.7646L154.272 81.8511H152.911L150.769 79.039V81.8511H149.588V75.8496H150.769V78.4988L152.825 75.8496H154.187L151.968 78.7646Z" fill="#F3F2EA"/>
<path d="M157.19 81.9712C156.294 81.9712 155.548 81.6711 154.955 81.0709C154.367 80.4765 154.073 79.7363 154.073 78.8503C154.073 77.9587 154.367 77.2185 154.955 76.6298C155.548 76.0296 156.294 75.7295 157.19 75.7295C157.732 75.7295 158.232 75.8581 158.689 76.1154C159.151 76.3668 159.511 76.7098 159.768 77.1442L158.749 77.7358C158.6 77.4671 158.389 77.2585 158.115 77.1099C157.841 76.9556 157.533 76.8784 157.19 76.8784C156.608 76.8784 156.137 77.0613 155.777 77.4271C155.423 77.7986 155.246 78.2731 155.246 78.8503C155.246 79.4219 155.423 79.8935 155.777 80.265C156.137 80.6308 156.608 80.8137 157.19 80.8137C157.533 80.8137 157.841 80.7394 158.115 80.5908C158.395 80.4365 158.606 80.2279 158.749 79.9649L159.768 80.5565C159.511 80.9909 159.151 81.3367 158.689 81.5939C158.232 81.8454 157.732 81.9712 157.19 81.9712Z" fill="#F3F2EA"/>
</svg>
