<svg width="30" height="30" viewBox="0 0 30 30" fill="none" xmlns="http://www.w3.org/2000/svg">
<path d="M24.9579 5.21607C22.6677 1.90143 19.038 0 15.0002 0C10.9625 0 7.33274 1.90143 5.04249 5.21607C2.76349 8.51396 2.23726 12.6892 3.63202 16.3779C4.00509 17.3853 4.59811 18.364 5.39042 19.2811L14.2016 29.6307C14.3 29.7465 14.4224 29.8394 14.5603 29.9032C14.6982 29.9669 14.8483 30 15.0002 30C15.1521 30 15.3022 29.967 15.4401 29.9032C15.578 29.8394 15.7004 29.7465 15.7988 29.6307L24.6075 19.2839C25.4033 18.3615 25.9956 17.3839 26.3656 16.3846C27.7632 12.6892 27.2369 8.51396 24.9579 5.21607ZM24.4013 15.65C24.116 16.421 23.6502 17.1832 23.0177 17.9164C23.0159 17.9181 23.0142 17.9199 23.0128 17.922L15.0002 27.3332L6.98271 17.9161C6.35054 17.1836 5.88477 16.4214 5.59667 15.643C4.44319 12.5923 4.88095 9.14021 6.76802 6.4091C8.66101 3.66926 11.6617 2.09789 15.0002 2.09789C18.3386 2.09789 21.339 3.6692 23.232 6.4091C25.1195 9.14021 25.5576 12.5923 24.4013 15.65Z" fill="#F3F2EA"/>
<path d="M15.0001 6.22377C11.7613 6.22377 9.12598 8.85873 9.12598 12.0979C9.12598 15.3371 11.7609 17.9721 15.0001 17.9721C18.2393 17.9721 20.8743 15.3371 20.8743 12.0979C20.8743 8.85908 18.2389 6.22377 15.0001 6.22377ZM15.0001 15.8741C12.9179 15.8741 11.2239 14.18 11.2239 12.0979C11.2239 10.0157 12.9179 8.3216 15.0001 8.3216C17.0823 8.3216 18.7764 10.0157 18.7764 12.0979C18.7764 14.18 17.0823 15.8741 15.0001 15.8741Z" fill="#F3F2EA"/>
</svg>
