<svg width="50" height="50" viewBox="0 0 50 50" fill="none" xmlns="http://www.w3.org/2000/svg">
<rect width="50" height="50" fill="#F3F2EA"/>
<g clip-path="url(#clip0_54_240)">
<path d="M37.3729 23.5043C37.8279 22.9161 38.1892 22.4441 38.456 22.088C40.3775 19.5333 41.2103 17.9014 40.9551 17.1899L40.855 17.0233C40.7884 16.9232 40.6159 16.8313 40.3385 16.7481C40.0607 16.6649 39.7053 16.6516 39.2723 16.7065L34.474 16.7404C34.363 16.7293 34.2511 16.7319 34.1407 16.7481C34.0296 16.765 33.9575 16.7819 33.924 16.7981C33.8905 16.815 33.8629 16.8286 33.8409 16.8397L33.7743 16.8897C33.7188 16.9228 33.6578 16.9813 33.5912 17.0649C33.5245 17.1483 33.4686 17.2451 33.4245 17.3566C32.9025 18.7004 32.3083 19.9502 31.6418 21.1054C31.2307 21.7941 30.8529 22.3915 30.509 22.8962C30.1646 23.4021 29.8759 23.774 29.6426 24.0124C29.4094 24.2512 29.1982 24.4432 29.0095 24.5871C28.8204 24.732 28.6762 24.7927 28.5765 24.7706C28.4817 24.75 28.3873 24.7277 28.2932 24.7037C28.1377 24.604 28.0125 24.4682 27.9184 24.2957C27.8239 24.124 27.7602 23.9072 27.7267 23.646C27.6935 23.3852 27.6737 23.1601 27.6685 22.9709C27.6626 22.7823 27.6656 22.5159 27.677 22.1711C27.6881 21.8268 27.6935 21.594 27.6935 21.4714C27.6935 21.0498 27.702 20.5915 27.7187 20.097C27.7352 19.603 27.7492 19.2112 27.7602 18.9223C27.7713 18.6339 27.7767 18.3282 27.7767 18.0059C27.7767 17.6844 27.7573 17.4312 27.7181 17.2477C27.6789 17.0644 27.6203 16.8857 27.5434 16.7146C27.4655 16.5428 27.3517 16.4093 27.2016 16.3151C27.0516 16.2206 26.8657 16.1459 26.6436 16.0899C26.0546 15.9564 25.3049 15.885 24.3943 15.8733C22.3283 15.852 21.0009 15.9851 20.4123 16.2735C20.1791 16.396 19.9679 16.5623 19.7792 16.7735C19.5791 17.0181 19.5515 17.1517 19.6961 17.173C20.3627 17.2731 20.8344 17.5122 21.1121 17.8897L21.2122 18.0894C21.2898 18.2343 21.3674 18.4897 21.4454 18.8561C21.5231 19.2225 21.5731 19.6279 21.5955 20.0723C21.6511 20.8831 21.6511 21.577 21.5955 22.155C21.54 22.7329 21.4874 23.1825 21.4374 23.504C21.3873 23.8263 21.3123 24.0871 21.2125 24.2869C21.1124 24.4873 21.0459 24.6095 21.0124 24.654C20.9789 24.6981 20.9513 24.726 20.9293 24.7372C20.7857 24.7923 20.6332 24.8205 20.4794 24.8203C20.3238 24.8203 20.135 24.7423 19.9128 24.5866C19.6906 24.4318 19.46 24.2177 19.2216 23.9454C18.9824 23.6736 18.7135 23.2928 18.4133 22.8039C18.1134 22.3157 17.8022 21.7377 17.4803 21.0715L17.2139 20.5881C17.0473 20.2776 16.8195 19.8247 16.5307 19.2306C16.242 18.6364 15.9863 18.0618 15.7644 17.506C15.6754 17.2731 15.5422 17.0954 15.3646 16.9729L15.2814 16.9229C15.2259 16.8787 15.1369 16.8313 15.0147 16.7815C14.8914 16.7313 14.7628 16.6949 14.6314 16.673L10.0663 16.7062C9.5998 16.7062 9.28343 16.8121 9.1168 17.0233L9.05019 17.123C9.01653 17.1789 9 17.2679 9 17.3897C9 17.5122 9.03348 17.6619 9.10009 17.8393C9.76667 19.4057 10.4914 20.9163 11.2743 22.3709C12.0576 23.8263 12.7378 24.9984 13.3153 25.8868C13.8929 26.776 14.4815 27.614 15.0816 28.4028C15.6816 29.1915 16.0785 29.6965 16.2727 29.9184C16.467 30.141 16.6197 30.3077 16.7308 30.4184L17.1473 30.8186C17.4136 31.085 17.8054 31.4043 18.322 31.7766C18.8385 32.1489 19.4102 32.5153 20.0382 32.8759C20.6655 33.2372 21.3961 33.5311 22.2289 33.7592C23.0618 33.9872 23.8726 34.0788 24.6614 34.0339H26.5774C26.9662 34.0008 27.2604 33.8791 27.4603 33.6675L27.5269 33.5844C27.571 33.5181 27.6129 33.4152 27.6519 33.2764C27.6905 33.1377 27.7105 32.9847 27.7105 32.8184C27.699 32.3409 27.7355 31.9098 27.8186 31.5271C27.9018 31.1438 27.9963 30.8554 28.1019 30.6604C28.2075 30.4665 28.3266 30.3025 28.4602 30.1689C28.5934 30.0353 28.6876 29.9555 28.7435 29.9276C28.799 29.9003 28.8436 29.8809 28.8767 29.8691C29.143 29.7803 29.4568 29.8665 29.8181 30.1273C30.179 30.3889 30.5179 30.7104 30.8346 31.0937C31.1509 31.4771 31.5313 31.9071 31.9758 32.385C32.4198 32.8625 32.8086 33.2179 33.1419 33.4511L33.4753 33.6516C33.6974 33.7844 33.9859 33.9066 34.3416 34.0181C34.697 34.1288 35.0082 34.1568 35.2745 34.1012L39.5398 34.0343C39.9618 34.0343 40.2896 33.9651 40.5229 33.826C40.7561 33.6881 40.8949 33.5343 40.9393 33.368C40.9835 33.2014 40.9864 33.0134 40.9478 32.8018C40.9089 32.591 40.8699 32.4439 40.8313 32.3607C40.7923 32.2776 40.7561 32.2077 40.7226 32.1525C40.1672 31.1529 39.1065 29.9253 37.5404 28.4703L37.5069 28.4372L37.4904 28.4203L37.4739 28.4041H37.4572C36.746 27.7264 36.2965 27.271 36.1077 27.0374C35.7634 26.5937 35.6854 26.1438 35.8745 25.6884C36.007 25.343 36.5065 24.6154 37.3729 23.5043Z" fill="#151515"/>
</g>
<defs>
<clipPath id="clip0_54_240">
<rect width="32" height="32" fill="white" transform="translate(9 9)"/>
</clipPath>
</defs>
</svg>
