<svg width="32" height="32" viewBox="0 0 32 32" fill="none" xmlns="http://www.w3.org/2000/svg">
<g clip-path="url(#clip0_54_267)">
<path fill-rule="evenodd" clip-rule="evenodd" d="M25.5338 4.35975C22.7271 1.54983 18.9945 0.00164062 15.018 0C6.82403 0 0.155312 6.66853 0.152031 14.8647C0.150906 17.4847 0.835328 20.0423 2.1363 22.2967L0.0273438 30L7.90801 27.9327C10.0794 29.1172 12.5241 29.7414 15.0119 29.7422H15.0182C23.2112 29.7422 29.8807 23.0731 29.8838 14.8766C29.8854 10.9043 28.3406 7.16953 25.5338 4.35975ZM15.018 27.2315H15.0128C12.7958 27.2306 10.6214 26.6348 8.72406 25.5093L8.27312 25.2414L3.59659 26.4682L4.84478 21.9087L4.55087 21.4412C3.31403 19.4739 2.66087 17.2002 2.662 14.8656C2.66458 8.05312 8.20754 2.51072 15.0229 2.51072C18.3232 2.5118 21.4256 3.79865 23.7583 6.13415C26.091 8.46965 27.375 11.574 27.3739 14.8756C27.371 21.6886 21.8284 27.2315 15.018 27.2315ZM21.7954 17.9776C21.4241 17.7916 19.5978 16.8933 19.2572 16.7691C18.917 16.6452 18.6691 16.5834 18.4217 16.9551C18.174 17.3269 17.4622 18.1636 17.2454 18.4114C17.0286 18.6593 16.8122 18.6904 16.4407 18.5044C16.0692 18.3186 14.8724 17.9262 13.4535 16.6607C12.3494 15.6758 11.604 14.4594 11.3872 14.0878C11.1707 13.7157 11.3853 13.534 11.5501 13.3296C11.9522 12.8303 12.3549 12.3068 12.4787 12.0591C12.6026 11.8111 12.5405 11.5942 12.4475 11.4083C12.3549 11.2225 11.612 9.39417 11.3026 8.65021C11.0008 7.92623 10.6948 8.02396 10.4667 8.01267C10.2503 8.00184 10.0025 7.99964 9.75479 7.99964C9.5072 7.99964 9.10473 8.09245 8.76418 8.46454C8.42378 8.83645 7.46434 9.73495 7.46434 11.5633C7.46434 13.3916 8.79531 15.1578 8.98098 15.4057C9.1666 15.6537 11.6003 19.4054 15.3263 21.0142C16.2125 21.3973 16.9043 21.6256 17.4439 21.7968C18.3338 22.0795 19.1433 22.0396 19.7835 21.944C20.4972 21.8373 21.9809 21.0454 22.2907 20.1778C22.6002 19.3101 22.6002 18.5665 22.5071 18.4114C22.4145 18.2565 22.1668 18.1636 21.7954 17.9776Z" fill="#F3F2EA"/>
</g>
<defs>
<clipPath id="clip0_54_267">
<rect width="32" height="32" fill="white"/>
</clipPath>
</defs>
</svg>
