<svg width="50" height="50" viewBox="0 0 50 50" fill="none" xmlns="http://www.w3.org/2000/svg">
<rect width="50" height="50" fill="#F3F2EA"/>
<g clip-path="url(#clip0_54_245)">
<path fill-rule="evenodd" clip-rule="evenodd" d="M36.5338 13.3597C33.7271 10.5498 29.9945 9.00164 26.018 9C17.824 9 11.1553 15.6685 11.152 23.8647C11.1509 26.4847 11.8353 29.0423 13.1363 31.2967L11.0273 39L18.908 36.9327C21.0794 38.1172 23.5241 38.7414 26.0119 38.7422H26.0182C34.2112 38.7422 40.8807 32.0731 40.8838 23.8766C40.8854 19.9043 39.3406 16.1695 36.5338 13.3597ZM26.018 36.2315H26.0128C23.7958 36.2306 21.6214 35.6348 19.7241 34.5093L19.2731 34.2414L14.5966 35.4682L15.8448 30.9087L15.5509 30.4412C14.314 28.4739 13.6609 26.2002 13.662 23.8656C13.6646 17.0531 19.2075 11.5107 26.0229 11.5107C29.3232 11.5118 32.4256 12.7987 34.7583 15.1342C37.091 17.4697 38.375 20.574 38.3739 23.8756C38.371 30.6886 32.8284 36.2315 26.018 36.2315ZM32.7954 26.9776C32.4241 26.7916 30.5978 25.8933 30.2572 25.7691C29.917 25.6452 29.6691 25.5834 29.4217 25.9551C29.174 26.3269 28.4622 27.1636 28.2454 27.4114C28.0286 27.6593 27.8122 27.6904 27.4407 27.5044C27.0692 27.3186 25.8724 26.9262 24.4535 25.6607C23.3494 24.6758 22.604 23.4594 22.3872 23.0878C22.1707 22.7157 22.3853 22.534 22.5501 22.3296C22.9522 21.8303 23.3549 21.3068 23.4787 21.0591C23.6026 20.8111 23.5405 20.5942 23.4475 20.4083C23.3549 20.2225 22.612 18.3942 22.3026 17.6502C22.0008 16.9262 21.6948 17.024 21.4667 17.0127C21.2503 17.0018 21.0025 16.9996 20.7548 16.9996C20.5072 16.9996 20.1047 17.0924 19.7642 17.4645C19.4238 17.8364 18.4643 18.7349 18.4643 20.5633C18.4643 22.3916 19.7953 24.1578 19.981 24.4057C20.1666 24.6537 22.6003 28.4054 26.3263 30.0142C27.2125 30.3973 27.9043 30.6256 28.4439 30.7968C29.3338 31.0795 30.1433 31.0396 30.7835 30.944C31.4972 30.8373 32.9809 30.0454 33.2907 29.1778C33.6002 28.3101 33.6002 27.5665 33.5071 27.4114C33.4145 27.2565 33.1668 27.1636 32.7954 26.9776Z" fill="#151515"/>
</g>
<defs>
<clipPath id="clip0_54_245">
<rect width="32" height="32" fill="white" transform="translate(11 9)"/>
</clipPath>
</defs>
</svg>
