<svg width="30" height="30" viewBox="0 0 30 30" fill="none" xmlns="http://www.w3.org/2000/svg">
<path d="M20.3446 17.6491L16.1617 14.512V8.12162C16.1617 7.47908 15.6423 6.9597 14.9998 6.9597C14.3573 6.9597 13.8379 7.47908 13.8379 8.12162V15.093C13.8379 15.459 14.0099 15.8041 14.3027 16.0225L18.9502 19.5082C19.1508 19.6592 19.3951 19.7408 19.6462 19.7406C20.0005 19.7406 20.3491 19.5814 20.5769 19.2746C20.9627 18.7622 20.8581 18.0337 20.3446 17.6491Z" fill="#F3F2EA"/>
<path d="M15 0C6.7285 0 0 6.7285 0 15C0 23.2715 6.7285 30 15 30C23.2715 30 30 23.2715 30 15C30 6.7285 23.2715 0 15 0ZM15 27.6762C8.01123 27.6762 2.32377 21.9888 2.32377 15C2.32377 8.01123 8.01123 2.32377 15 2.32377C21.9899 2.32377 27.6762 8.01123 27.6762 15C27.6762 21.9888 21.9888 27.6762 15 27.6762Z" fill="#F3F2EA"/>
</svg>
